<svg width="420" height="420" viewBox="0 0 420 420" fill="none" xmlns="http://www.w3.org/2000/svg">
<path fill-rule="evenodd" clip-rule="evenodd" d="M202.534 26.9198C204.82 25.6605 207.389 25 210 25C212.611 25 215.18 25.6605 217.466 26.9198L258.716 49.6741C260.556 50.62 262.187 51.925 263.513 53.5119C264.839 55.0987 265.833 56.9353 266.436 58.9128C267.039 60.8904 267.239 62.9687 267.024 65.0249C266.809 67.081 266.184 69.0732 265.185 70.8836C264.186 72.694 262.834 74.2857 261.208 75.5646C259.583 76.8435 257.717 77.7836 255.722 78.3293C253.727 78.875 251.642 79.0151 249.591 78.7415C247.541 78.4678 245.566 77.7859 243.784 76.7361L210 58.1245L176.216 76.7361C174.434 77.7859 172.459 78.4678 170.409 78.7415C168.358 79.0151 166.273 78.875 164.278 78.3293C162.283 77.7836 160.417 76.8435 158.792 75.5646C157.166 74.2857 155.814 72.694 154.815 70.8836C153.816 69.0732 153.191 67.081 152.976 65.0249C152.761 62.9687 152.961 60.8904 153.564 58.9128C154.167 56.9353 155.161 55.0987 156.487 53.5119C157.813 51.925 159.444 50.62 161.284 49.6741L202.534 26.9198ZM115.187 92.7506C116.168 94.5288 116.788 96.4827 117.013 98.5006C117.238 100.519 117.063 102.561 116.498 104.511C115.933 106.462 114.989 108.282 113.72 109.867C112.451 111.453 110.882 112.773 109.102 113.753L92.4994 122.904L109.102 132.055C112.696 134.034 115.356 137.359 116.497 141.297C117.638 145.236 117.167 149.466 115.187 153.058C113.207 156.649 109.88 159.307 105.939 160.448C101.997 161.588 97.7638 161.117 94.17 159.138L75.9375 149.08V164.126C75.9375 168.225 74.3078 172.157 71.4068 175.056C68.5059 177.955 64.5713 179.584 60.4688 179.584C56.3662 179.584 52.4316 177.955 49.5307 175.056C46.6297 172.157 45 168.225 45 164.126V122.904C44.9995 120.138 45.7417 117.422 47.1493 115.041C48.5569 112.659 50.5782 110.698 53.0025 109.363L94.17 86.6911C97.7612 84.7099 101.993 84.2353 105.934 85.3717C109.875 86.508 113.204 89.1623 115.187 92.7506ZM304.813 92.7506C305.793 90.9694 307.115 89.3989 308.704 88.129C310.292 86.8591 312.116 85.9147 314.07 85.3499C316.024 84.7851 318.07 84.6111 320.092 84.8377C322.113 85.0643 324.07 85.6871 325.851 86.6705L366.997 109.363C369.422 110.698 371.443 112.659 372.851 115.041C374.258 117.422 375.001 120.138 375 122.904V164.126C375 168.225 373.37 172.157 370.469 175.056C367.568 177.955 363.634 179.584 359.531 179.584C355.429 179.584 351.494 177.955 348.593 175.056C345.692 172.157 344.062 168.225 344.062 164.126V149.08L325.83 159.138C324.051 160.118 322.095 160.738 320.076 160.962C318.057 161.187 316.013 161.012 314.061 160.448C310.12 159.307 306.793 156.649 304.813 153.058C303.833 151.28 303.212 149.326 302.987 147.308C302.763 145.29 302.938 143.248 303.503 141.297C304.644 137.359 307.304 134.034 310.897 132.055L327.521 122.904L310.897 113.753C309.115 112.773 307.543 111.452 306.273 109.865C305.002 108.278 304.057 106.455 303.492 104.503C302.927 102.55 302.752 100.505 302.979 98.4848C303.206 96.4647 303.829 94.5091 304.813 92.73V92.7506ZM155.199 175.132C156.181 173.352 157.505 171.784 159.094 170.516C160.683 169.248 162.507 168.306 164.461 167.743C166.415 167.18 168.461 167.008 170.481 167.236C172.502 167.464 174.458 168.088 176.237 169.072L210 187.684L243.784 169.072C245.566 168.023 247.541 167.341 249.591 167.067C251.642 166.793 253.727 166.933 255.722 167.479C257.717 168.025 259.583 168.965 261.208 170.244C262.834 171.523 264.186 173.114 265.185 174.925C266.184 176.735 266.809 178.727 267.024 180.784C267.239 182.84 267.039 184.918 266.436 186.896C265.833 188.873 264.839 190.71 263.513 192.297C262.187 193.883 260.556 195.188 258.716 196.134L225.469 214.478V246.569C225.469 250.669 223.839 254.6 220.938 257.499C218.037 260.398 214.103 262.027 210 262.027C205.897 262.027 201.963 260.398 199.062 257.499C196.161 254.6 194.531 250.669 194.531 246.569V214.478L161.284 196.134C159.504 195.155 157.935 193.834 156.666 192.249C155.397 190.663 154.453 188.843 153.888 186.893C153.323 184.942 153.148 182.9 153.373 180.882C153.598 178.864 154.219 176.91 155.199 175.132ZM60.4688 241.416C64.5713 241.416 68.5059 243.045 71.4068 245.944C74.3078 248.843 75.9375 252.775 75.9375 256.874V288.965L109.102 307.247C112.696 309.226 115.356 312.55 116.497 316.489C117.638 320.428 117.167 324.658 115.187 328.249C113.207 331.841 109.88 334.499 105.939 335.639C101.997 336.779 97.7638 336.308 94.17 334.33L53.0025 311.637C50.5782 310.302 48.5569 308.341 47.1493 305.959C45.7417 303.578 44.9995 300.862 45 298.096V256.874C45 252.775 46.6297 248.843 49.5307 245.944C52.4316 243.045 56.3662 241.416 60.4688 241.416ZM359.531 241.416C363.634 241.416 367.568 243.045 370.469 245.944C373.37 248.843 375 252.775 375 256.874V298.096C375.001 300.862 374.258 303.578 372.851 305.959C371.443 308.341 369.422 310.302 366.997 311.637L325.83 334.309C324.048 335.359 322.073 336.041 320.022 336.314C317.972 336.588 315.887 336.448 313.892 335.902C311.896 335.356 310.031 334.416 308.405 333.137C306.78 331.859 305.428 330.267 304.429 328.456C303.43 326.646 302.805 324.654 302.59 322.598C302.375 320.542 302.575 318.463 303.178 316.486C303.781 314.508 304.775 312.672 306.101 311.085C307.427 309.498 309.058 308.193 310.897 307.247L344.062 288.965V256.874C344.062 252.775 345.692 248.843 348.593 245.944C351.494 243.045 355.429 241.416 359.531 241.416ZM210 323.859C214.103 323.859 218.037 325.488 220.938 328.387C223.839 331.286 225.469 335.218 225.469 339.317V354.363L243.784 344.264C247.363 342.423 251.52 342.05 255.371 343.223C259.222 344.395 262.463 347.022 264.407 350.545C266.351 354.068 266.844 358.209 265.781 362.089C264.719 365.97 262.184 369.283 258.716 371.326L217.466 394.08C215.18 395.34 212.611 396 210 396C207.389 396 204.82 395.34 202.534 394.08L161.284 371.326C159.444 370.38 157.813 369.075 156.487 367.488C155.161 365.901 154.167 364.065 153.564 362.087C152.961 360.11 152.761 358.031 152.976 355.975C153.191 353.919 153.816 351.927 154.815 350.116C155.814 348.306 157.166 346.714 158.792 345.435C160.417 344.156 162.283 343.216 164.278 342.671C166.273 342.125 168.358 341.985 170.409 342.259C172.459 342.532 174.434 343.214 176.216 344.264L194.531 354.363V339.317C194.531 335.218 196.161 331.286 199.062 328.387C201.963 325.488 205.897 323.859 210 323.859Z" fill="white"/>
</svg>
